<svg xmlns="http://www.w3.org/2000/svg" width="226.965" height="49.502" viewBox="0 0 226.965 49.502">
  <g id="Group_75" data-name="Group 75" transform="translate(-2.142 -2.23)">
    <path id="Pirk" d="M56.162,26.939,48.1,16.809l-4.938,4.5v5.627H41.35V0h1.815V19.06L55.291,7.987h2.324l-8.169,7.66,8.967,11.291Zm-26.612,0V7.987h1.743v4.139c1.162-2.759,3.667-4.284,7.225-4.284V9.621c-.145,0-.29-.036-.435-.036-4.212,0-6.717,2.8-6.717,7.479v9.875Zm-7.3,0V7.987H24.07V26.939ZM0,26.939V1.525H9.113c6.39,0,10.238,3.195,10.238,8.568,0,5.337-3.848,8.532-10.238,8.532H1.852v8.314Zm1.852-9.984H9.113c5.446,0,8.35-2.505,8.35-6.862,0-4.393-2.9-6.9-8.35-6.9H1.852ZM21.673,1.924A1.5,1.5,0,0,1,23.162.436a1.47,1.47,0,1,1-1.488,1.488Z" transform="translate(62.452 13.024)" fill="#00d573"/>
    <path id="MARKETING_AGENCY" data-name="MARKETING   AGENCY" d="M57.36,2.9A2.891,2.891,0,0,1,60.437,0a2.977,2.977,0,0,1,2.342.971l-.831.77A1.89,1.89,0,0,0,60.5,1.107a1.726,1.726,0,0,0-1.83,1.8,1.73,1.73,0,0,0,1.814,1.8,2.048,2.048,0,0,0,1.007-.241V2.816h1.183V5.095a3.85,3.85,0,0,1-2.262.714A2.884,2.884,0,0,1,57.36,2.9Zm49.448,0a2.8,2.8,0,0,1,2.9-2.848,2.661,2.661,0,0,1,1.99.778l-.256.265a2.337,2.337,0,0,0-1.718-.666,2.434,2.434,0,0,0-2.51,2.471,2.434,2.434,0,0,0,2.51,2.471,2.345,2.345,0,0,0,1.718-.674l.256.265a2.667,2.667,0,0,1-1.99.786A2.8,2.8,0,0,1,106.807,2.9Zm-22.826,0A2.808,2.808,0,0,1,86.915.056a2.729,2.729,0,0,1,2.014.77l-.256.273a2.353,2.353,0,0,0-1.75-.666A2.44,2.44,0,0,0,84.389,2.9a2.581,2.581,0,0,0,4.124,1.958V2.928H88.9v2.1a2.874,2.874,0,0,1-2,.722A2.806,2.806,0,0,1,83.981,2.9Zm31.865,2.808V3.779L113.592.1h.448L116.062,3.4,118.084.1h.424l-2.254,3.683V5.712Zm-12.388,0L99.646.834V5.712h-.408V.1h.344l3.8,4.878V.1h.408V5.712Zm-11.165,0V.1h3.741V.465H92.7V2.68h2.981v.361H92.7v2.3h3.453v.369Zm-10.749,0-.719-1.581H77.58l-.711,1.581h-.44L79,.1h.408l2.574,5.616Zm-3.8-1.926h2.933L79.2.546ZM53.723,5.712,50.934,2.3v3.41H49.655V.1h1.071l2.781,3.41V.1h1.279V5.712Zm-8.288,0V.1H46.73V5.712Zm-5.379,0V1.155h-1.79V.1h4.876V1.155h-1.79V5.712Zm-8.12,0V.1h4.228V1.139H33.223V2.359h2.6V3.37h-2.6v1.3h3.045V5.712Zm-3.684,0-1.79-2.206-.751.786v1.42H24.424V.1h1.287V2.72L28.189.1h1.439L27.309,2.6l2.454,3.113Zm-7.736,0L19.437,4.148H18.246V5.712H16.951V.1h2.422c1.495,0,2.43.778,2.43,2.038a1.826,1.826,0,0,1-1.151,1.773l1.255,1.805Zm-2.27-2.6H19.3c.791,0,1.191-.369,1.191-.979s-.4-.979-1.191-.979H18.246Zm-4.835,2.6-.5-1.2h-2.6l-.5,1.2H8.5L10.989.1h1.279l2.5,5.616Zm-2.677-2.19h1.774l-.887-2.15ZM5.091,5.712l-.008-3.37L3.437,5.119H2.853l-1.639-2.7v3.3H0V.1H1.071l2.094,3.49L5.227.1H6.29l.016,5.616Z" transform="translate(84.693 45.923)" fill="#424242"/>
    <path id="Spark" d="M22.617,38.7V7.406h5.409V9.657a7.589,7.589,0,0,1,6.136-2.541c5.482,0,9.73,3.921,9.73,10.057s-4.248,10.056-9.73,10.056a7.583,7.583,0,0,1-5.881-2.36V38.7Zm5.591-21.528c0,3.376,2.142,5.409,4.974,5.409s4.974-2.033,4.974-5.409-2.142-5.41-4.974-5.41S28.208,13.8,28.208,17.172ZM0,24.433,2,20a14.951,14.951,0,0,0,8.387,2.65c3.485,0,4.9-1.162,4.9-2.723C15.285,15.176.508,18.443.508,9c0-4.32,3.485-7.915,10.71-7.915A17.048,17.048,0,0,1,20.04,3.34L18.225,7.806a14.354,14.354,0,0,0-7.043-2c-3.485,0-4.829,1.307-4.829,2.9C6.353,13.4,21.13,10.165,21.13,19.5c0,4.248-3.522,7.878-10.783,7.878C6.317,27.374,2.251,26.176,0,24.433Zm43.926-3.122c0-3.449,2.433-5.845,8.387-5.845h4.5c0-2.432-1.452-3.848-4.5-3.848a9.39,9.39,0,0,0-5.627,1.815L44.653,9.476a15.014,15.014,0,0,1,8.423-2.36c5.954,0,9.4,2.759,9.4,8.677V26.939h-5.3V24.506c-1.053,1.779-3.086,2.723-5.954,2.723C46.649,27.229,43.926,24.688,43.926,21.311Zm5.518-.254c0,1.416,1.2,2.36,3.195,2.36a4.173,4.173,0,0,0,4.175-2.65v-2H52.93C50.28,18.77,49.445,19.75,49.445,21.057Zm43.927,5.882L87.2,19.278l-2.723,2.687v4.974H78.814V0h5.664V15.248l8.278-7.842h6.753l-8.132,8.278,8.859,11.255Zm-27.918,0V7.406h5.41V9.984c1.38-1.888,3.7-2.868,6.717-2.868v5.228c-.472-.036-.835-.073-1.271-.073-3.122,0-5.192,1.706-5.192,5.446v9.222Z" transform="translate(128.873 13.024)" fill="#00d573"/>
    <g id="Group_74" data-name="Group 74" transform="translate(2.142 2.23)">
      <path id="Path_117" data-name="Path 117" d="M123.15,65.628c.485-.39,1.026-.636,1.286-1.249.92.728,1.75,1.415,2.61,2.061a28.232,28.232,0,0,0,8.02,4.477,11.132,11.132,0,0,0,3.725.636,5.173,5.173,0,0,0,5.156-4.431,4.135,4.135,0,0,0-.564-2.689,7.284,7.284,0,0,0-2.988-2.821,11.832,11.832,0,0,1-1.687-.981,9.5,9.5,0,0,1,1.969-.689,5.121,5.121,0,0,0,2.692-2.033,4.348,4.348,0,0,0-1.273-6.317,5.591,5.591,0,0,0-7.5,1.089c-.156.185-.3.38-.454.565-.444.529-.882.622-1.322.286a.891.891,0,0,1-.145-1.354,7.462,7.462,0,0,1,3.958-3.018,7.169,7.169,0,0,1,7.832,2.1,6.263,6.263,0,0,1-.9,9.155c-.212.169-.432.328-.671.51.1.351.411.512.636.732a7.364,7.364,0,0,1,2.127,3.616,6.214,6.214,0,0,1-1.619,5.769,6.783,6.783,0,0,1-5.114,2.331,14.879,14.879,0,0,1-6.545-1.538,35.993,35.993,0,0,1-7.82-5.026C124.092,66.434,123.641,66.042,123.15,65.628Z" transform="translate(-101.189 -40.317)" fill="#424242"/>
      <path id="Path_118" data-name="Path 118" d="M34.184,131.613c-1.446.437-2.83.844-4.182,1.35a24.939,24.939,0,0,0-7.552,4.2,8.673,8.673,0,0,0-2.084,2.488,5.11,5.11,0,0,0,.234,5.412,4.031,4.031,0,0,0,3.215,1.926,7.72,7.72,0,0,0,4.431-1.02c.416-.219.835-.434,1.359-.706a6.275,6.275,0,0,1-.492,1.932,5.266,5.266,0,0,0,.064,3.544,4.287,4.287,0,0,0,5.567,2.65A5.62,5.62,0,0,0,38.37,146.2c-.062-.2-.153-.4-.2-.6a.87.87,0,0,1,.54-1.023.824.824,0,0,1,1.095.34,1.62,1.62,0,0,1,.147.328,7.433,7.433,0,0,1-6.743,10.23,6.141,6.141,0,0,1-5.819-4.249,8.455,8.455,0,0,1-.41-2.686c-.56.088-1.061.179-1.566.243a6.137,6.137,0,0,1-6.093-2.364,6.74,6.74,0,0,1-.869-6.933,10.634,10.634,0,0,1,3.5-4.312,26.459,26.459,0,0,1,7.066-3.8,31.964,31.964,0,0,1,4.253-1.353A15.091,15.091,0,0,0,34.184,131.613Z" transform="translate(-15.021 -106.836)" fill="#424242"/>
      <path id="Path_119" data-name="Path 119" d="M25.082,23.192a4.688,4.688,0,0,0-1.655-.839c.2-1,.382-1.97.574-2.935a36.175,36.175,0,0,0,.525-4.025,21.13,21.13,0,0,0-.036-4.152,11.244,11.244,0,0,0-1.516-4.865,5.234,5.234,0,0,0-5.71-2.115,4.64,4.64,0,0,0-2.918,2.9,7.388,7.388,0,0,0-.582,2.9c0,.591-.026,1.181-.04,1.772l-.193.075c-.408-.426-.824-.844-1.222-1.278A5.092,5.092,0,0,0,8.941,8.89a4.212,4.212,0,0,0-4.777,3.32A5.628,5.628,0,0,0,8.625,19.2c.148.026.295.06.44.1a.914.914,0,1,1-.325,1.793A8.043,8.043,0,0,1,5.247,19.7,7.45,7.45,0,0,1,3.128,9.951,5.917,5.917,0,0,1,7.062,7.143a6.9,6.9,0,0,1,4.976.866,1.425,1.425,0,0,0,.31-.7c.786-2.4,2.169-4.244,4.742-4.886A6.994,6.994,0,0,1,24.885,6a12.885,12.885,0,0,1,1.373,4.459,19.958,19.958,0,0,1,.183,4.246,44.78,44.78,0,0,1-.942,6.7C25.373,21.954,25.242,22.505,25.082,23.192Z" transform="translate(-2.142 -2.23)" fill="#00d573"/>
    </g>
  </g>
</svg>
